# xmcd
#
# Track frame offsets: 
#        150
#        20845
#        40436
#        58689
#        77832
#        96210
#        113241
#        128877
#        151227
#        172894
#
# Disc length: 2439 seconds
#
# Revision: 0
# Processed by: cddbd v1.5.2PL0 Copyright (c) Steve Scherf et al.
# Submitted via: ExactAudioCopy v0.99pb3
#
DISCID=7f09850a
DTITLE=Various Artist - Rare Trax 66 - No Bling Bling
DYEAR=2010
DGENRE=Rap
TTITLE0=Mos Def feat. Slick Rick The Ruler/Auditorium
TTITLE1=Michael Franti and Spearhead/A Little Bit Of Riddim
TTITLE2=Benjamin Zephaniah/Responsible
TTITLE3=Jan Delay/Ich möchte nicht, dass ihr meine Lieder singt
TTITLE4=Dendemann/Ersolchso
TTITLE5=Aceyalone and RJD2/Solomon Jones
TTITLE6=Everlast/Folsom Prison Blues
TTITLE7=Speech Debelle/Finish This Album
TTITLE8=Ursula Rucker feat. U-Love/What ???
TTITLE9=Gonjasufi/Kobwebz
EXTD=
EXTT0=
EXTT1=
EXTT2=
EXTT3=
EXTT4=
EXTT5=
EXTT6=
EXTT7=
EXTT8=
EXTT9=
PLAYORDER=
